<svg style="display:none"><defs><svg id="op3-icons-a-time-1" xmlns="http://www.w3.org/2000/svg" viewBox="0 0 32 32"><path fill="currentColor" d="M14 0C9.594 0 6 3.594 6 8c0 2.203.87 4.397 2.283 6.09C9.697 15.783 11.711 17 14 17s4.303-1.217 5.717-2.91C21.13 12.397 22 10.203 22 8c0-4.406-3.594-8-8-8zm0 2c3.326 0 6 2.674 6 6 0 1.663-.699 3.468-1.818 4.809C17.062 14.149 15.577 15 14 15s-3.062-.85-4.182-2.191C8.698 11.469 8 9.663 8 8c0-3.326 2.674-6 6-6zm10 14c-4.406 0-8 3.594-8 8s3.594 8 8 8 8-3.594 8-8-3.594-8-8-8zm0 2c3.326 0 6 2.674 6 6s-2.674 6-6 6-6-2.674-6-6 2.674-6 6-6zm-10 1c-5.71 0-9.533 1.198-11.633 2.129A4 4 0 000 24.783V31h15v-2H2v-4.217c0-.796.456-1.505 1.178-1.826C5.038 22.132 8.569 21 14 21h1v-2h-1zm9 1v5h5v-2h-3v-3h-2z"/></svg><svg id="op3-icons-button-record-2" xmlns="http://www.w3.org/2000/svg" viewBox="0 0 32 32"><path fill="currentColor" d="M16 1C7.729 1 1 7.729 1 16s6.729 15 15 15 15-6.729 15-15S24.271 1 16 1z"/></svg><svg id="op3-icons-chat-round-2" xmlns="http://www.w3.org/2000/svg" viewBox="0 0 32 32"><path fill="currentColor" d="M16 1C7 1 0 6.7 0 14s7.2 13.301 16 13.301c1.4 0 2.8-.2 4.1-.5l7.5 3.1c.1.1.3.1.4.1.2 0 .4-.1.6-.2.3-.2.4-.5.4-.9l-.5-6.702C30.8 19.9 32 17 32 14c0-7.3-7-13-16-13z"/></svg><svg id="op3-icons-check-simple-2" xmlns="http://www.w3.org/2000/svg" viewBox="0 0 32 32"><path fill="currentColor" d="M26 4c-.25 0-.5.1-.7.3L12 17.6l-5.301-5.3c-.4-.4-.998-.4-1.398 0l-4 4c-.4.4-.4.998 0 1.398l10 10c.2.2.499.301.699.301s.499-.1.699-.3l18-18c.4-.4.4-1 0-1.399l-4-4c-.2-.2-.45-.3-.7-.3z"/></svg><svg id="op3-icons-coins-2" xmlns="http://www.w3.org/2000/svg" viewBox="0 0 32 32"><path fill="currentColor" d="M7 2C3.134 2 0 3.343 0 5s3.134 3 7 3 7-1.343 7-3-3.134-3-7-3zm18 4c-3.866 0-7 1.343-7 3s3.134 3 7 3 7-1.343 7-3-3.134-3-7-3zM0 8.287V10c0 1.657 3.134 3 7 3s7-1.343 7-3V8.287C12.403 9.36 9.951 10 7 10s-5.403-.64-7-1.713zm32 4C30.403 13.36 27.951 14 25 14a17.8 17.8 0 01-2.969-.24c1.996.69 3.363 1.815 3.809 3.217C29.309 16.797 32 15.535 32 14v-1.713zm-32 1V15c0 1.657 3.134 3 7 3a16.5 16.5 0 001.004-.033c.012-1.263.706-2.361 1.916-3.201A17.81 17.81 0 017 15c-2.951 0-5.403-.64-7-1.713zM17 15c-3.866 0-7 1.343-7 3s3.134 3 7 3 7-1.343 7-3-3.134-3-7-3zm15 2.287c-1.412.95-3.496 1.558-6 1.686v2.994c3.391-.208 6-1.456 6-2.967v-1.713zm-32 1V20c0 1.657 3.134 3 7 3 .34 0 .673-.013 1-.033v-2.994A20.37 20.37 0 017 20c-2.951 0-5.403-.64-7-1.713zm10 3V23c0 1.657 3.134 3 7 3s7-1.343 7-3v-1.713C22.403 22.36 19.951 23 17 23s-5.403-.64-7-1.713zm22 1c-1.412.95-3.496 1.558-6 1.686v2.994c3.391-.208 6-1.456 6-2.967v-1.713zm-32 1V25c0 1.657 3.134 3 7 3 .34 0 .673-.013 1-.033v-2.994A20.37 20.37 0 017 25c-2.951 0-5.403-.64-7-1.713zm10 3V28c0 1.657 3.134 3 7 3s7-1.343 7-3v-1.713C22.403 27.36 19.951 28 17 28s-5.403-.64-7-1.713z"/></svg><svg id="op3-icons-email-83-1" xmlns="http://www.w3.org/2000/svg" viewBox="0 0 32 32"><path fill="currentColor" d="M0 4v24h32V4H0zm2 2h28v3.4l-14 7.467L2 9.4V6zm0 5.666l14 7.467 14-7.467V26H2V11.666z"/></svg><svg id="op3-icons-humidity-52-2" xmlns="http://www.w3.org/2000/svg" viewBox="0 0 32 32"><path fill="currentColor" d="M10.5 1C5.3 1 1 5.3 1 10.5S5.3 20 10.5 20s9.5-4.3 9.5-9.5S15.7 1 10.5 1zM27 6c-2.2 0-4 1.8-4 4s1.8 4 4 4 4-1.8 4-4-1.8-4-4-4zm-3 11c-3.9 0-7 3.1-7 7s3.1 7 7 7 7-3.1 7-7-3.1-7-7-7z"/></svg><svg id="op3-icons-like-2-2" xmlns="http://www.w3.org/2000/svg" viewBox="0 0 32 32"><path fill="currentColor" d="M15.137.207A1.904 1.904 0 0013.801.6c-.5.4-.8.9-.8 1.6v5.5l-5 6.4v15.5l1.9 1c1.9.9 4 1.4 6.1 1.4h10c2.2 0 4.1-1.6 4.5-3.9l1.5-12V16c0-2.2-1.8-4-4-4h-7V8C21 4.9 19.1 1.3 15.6.3a1.948 1.948 0 00-.463-.093zM1 13c-.6 0-1 .4-1 1v17c0 .6.4 1 1 1h4c.6 0 1-.4 1-1V14c0-.6-.4-1-1-1H1z"/></svg><svg id="op3-icons-list-bullet-1" xmlns="http://www.w3.org/2000/svg" viewBox="0 0 32 32"><path fill="currentColor" d="M4 2C1.803 2 0 3.803 0 6s1.803 4 4 4 4-1.803 4-4-1.803-4-4-4zm0 2c1.116 0 2 .884 2 2s-.884 2-2 2-2-.884-2-2 .884-2 2-2zm7 1v2h21V5H11zm-7 7c-2.197 0-4 1.803-4 4s1.803 4 4 4 4-1.803 4-4-1.803-4-4-4zm0 2c1.116 0 2 .884 2 2s-.884 2-2 2-2-.884-2-2 .884-2 2-2zm7 1v2h21v-2H11zm-7 7c-2.197 0-4 1.803-4 4s1.803 4 4 4 4-1.803 4-4-1.803-4-4-4zm0 2c1.116 0 2 .884 2 2s-.884 2-2 2-2-.884-2-2 .884-2 2-2zm7 1v2h21v-2H11z"/></svg><svg id="op3-icons-shape-star-1-1" xmlns="http://www.w3.org/2000/svg" viewBox="0 0 34 32"><path fill="currentColor" d="M17 .426l-.896 1.816-4.094 8.295L.852 12.158l8.074 7.871L7.02 31.143 17 25.896l9.98 5.247-1.906-11.114 8.074-7.87-11.158-1.622L17 .426z"/></svg><svg id="op3-icons-single-01-1" xmlns="http://www.w3.org/2000/svg" viewBox="0 0 32 32"><path fill="currentColor" d="M16 0c-4.406 0-8 3.594-8 8v2c0 4.406 3.594 8 8 8s8-3.594 8-8V8c0-4.406-3.594-8-8-8zm0 2c3.326 0 6 2.674 6 6v2c0 3.326-2.674 6-6 6s-6-2.674-6-6V8c0-3.326 2.674-6 6-6zm0 18c-5.332 0-9.288 1.011-11.711 1.887a4.998 4.998 0 00-3.29 4.7V32h30v-5.412a4.998 4.998 0 00-3.288-4.701C25.288 21.01 21.332 20 16 20zm0 2c5.08 0 8.8.961 11.031 1.768A2.98 2.98 0 0129 26.588V30H3v-3.412c0-1.27.78-2.39 1.969-2.82C7.2 22.96 10.92 22 15.999 22z"/></svg><svg id="op3-icons-small-right" xmlns="http://www.w3.org/2000/svg" viewBox="0 0 32 32"><path fill="currentColor" d="M13 8.586L11.586 10l6 6-6 6L13 23.414 20.414 16 13 8.586z"/></svg><svg id="op3-icons-wifi-3" xmlns="http://www.w3.org/2000/svg" viewBox="0 0 32 32"><path fill="currentColor" d="M16 5A21.108 21.108 0 00.975 11.225l2.828 2.828C7.063 10.795 11.393 9 16 9s8.938 1.795 12.197 5.053l2.828-2.828A21.109 21.109 0 0016 5zm0 8a12.913 12.913 0 00-9.191 3.807l2.828 2.83C11.337 17.937 13.596 17 16 17s4.663.937 6.363 2.637l2.828-2.83A12.913 12.913 0 0016 13zm0 8a3 3 0 100 6 3 3 0 000-6z"/></svg></defs></svg>